<?xml version="1.0" encoding="UTF-8"?>
<svg viewBox="0 0 811.00751 601.53485" xmlns="http://www.w3.org/2000/svg" xmlns:xlink="http://www.w3.org/1999/xlink">
 <defs>
  <filter id="i">
   <feGaussianBlur stdDeviation="5.69692"/>
  </filter>
  <linearGradient id="a">
   <stop stop-color="#fff" offset="0"/>
   <stop stop-color="#fff" stop-opacity="0" offset="1"/>
  </linearGradient>
  <linearGradient id="f" x1="365.27" x2="372.88" y1="809.9" y2="919.7" gradientUnits="userSpaceOnUse">
   <stop stop-color="#fff" offset="0"/>
   <stop stop-color="#fff6d5" stop-opacity="0" offset="1"/>
  </linearGradient>
  <linearGradient id="b" x1="1625.6" x2="1877.1" y1="794.33" y2="667.76" gradientUnits="userSpaceOnUse" xlink:href="#a"/>
  <linearGradient id="c" x1="-102.18" x2="247.39" y1="-938.15" y2="-1117.4" gradientTransform="matrix(-.69715 .17337 .17661 .68436 2396.9 1382.8)" gradientUnits="userSpaceOnUse" xlink:href="#a"/>
  <linearGradient id="d" x1="-102.18" x2="247.39" y1="-938.15" y2="-1117.4" gradientTransform="matrix(-.7128 .0938 -.09555 -.69972 2027.4 -34.18)" gradientUnits="userSpaceOnUse" xlink:href="#a"/>
  <linearGradient id="h" x1="254.49" x2="306.81" y1="913.23" y2="922.92" gradientUnits="userSpaceOnUse" xlink:href="#a"/>
  <linearGradient id="g" x1="362.61" x2="368.95" y1="765.99" y2="810.36" gradientUnits="userSpaceOnUse" xlink:href="#a"/>
  <linearGradient id="e" x1="449.45" x2="435.44" y1="975.52" y2="926.06" gradientUnits="userSpaceOnUse" xlink:href="#a"/>
 </defs>
 <g transform="matrix(1.3728 0 0 1.3728 -2317.4 -683.06)">
  <path transform="matrix(.7173 0 0 .7173 1890.8 481.22)" d="m-205.19 558.53c74.892-229.24 246.02-351.8 451.21-459.63 29.631 175.49 47.939 233.21 205.24 388.74-231.59-43.011-456.8-33.879-656.45 70.885z" filter="url(#i)" stroke="#000" stroke-width="47.368"/>
  <path d="m1756.5 894.71c26.716-156.72 146.89-289.64 294.08-366.98 45.687 178.6 51.104 175 156.22 320-166.12-30.852-307.09-28.16-450.3 46.988z" fill="#aad400" stroke="#f60" stroke-width="33.977"/>
  <path d="m1853.8 674.09s82.339 111.31 82.339 141.68-92.653 54.49-92.653 54.49c-44.632 11.584-69.101 24.757-101.85 41.765 0 0 13.406-97.357 58.017-170.86 30.335-49.98 54.149-67.078 54.149-67.078z" fill="url(#b)"/>
  <path d="m2048.6 676.73s-105.12 91.481-97.522 120.93 94.872 42.603 94.872 42.603c59.023-8.5321 154.24 17.567 190.24 26.159 0 0-55.402-82.285-117.03-142.78-41.909-41.136-70.561-46.907-70.561-46.907z" fill="url(#c)"/>
  <path d="m1946.4 629.98s-63.595 35.146-56.332 5.6197c2.6577-10.805 49.439-48.605 49.439-48.605 11.404-12.556 59.249-44.275 119.38-75.846 0 0 17.54 105.36 31.29 124.47 44.522 61.853-143.78-5.6336-143.78-5.6336z" fill="url(#d)"/>
  <g transform="matrix(1.2208 -.13372 -.01205 1.3068 1551.4 -375.57)">
   <g transform="matrix(.87262 0 0 .87262 -355.69 363.84)">
    <path d="m819.33 586.29c-60.25 0-110.26 32.533-131.49 84.224-1.5451 3.7608-3.4438 9.4664 0.70356 8.8239 0 0 8.5223-7.1488 27.9-8.0965l29.806-4.9355 17.693-1.4099 7.7087-0.0566 13.381-1.0874 20.239-3.981 43.304 2.042-15.895 0.13828 24.48-0.64393 19.394-0.14093 33.106 6.6354 25.394-0.0967 9.1527-3.256s2.3846-2.4205 0.4984-5.1997c-20.51-55.102-62.772-72.959-125.37-72.959z" stroke="#000" stroke-width="10.094"/>
    <path d="m793.24 571.68c-55.221 26.092-105.52 76.828-107.06 106.9-0.25034 4.8905 4.9677-3.5526 26.752-5.9825 0 0 5.9598-0.79537 8.54-1.3579l37.762-3.9364 7.4137-0.5288-13.965 1.3133 23.702-2.7526 31.909-2.0091-23.768 1.5407 25.742-1.5643 30.528 2.3011 20.673 2.6543 24.307 3.8442 23.091 4.9344 16.487 3.3701s8.1853 1.3035 13.796 2.207c14.78 3.9168 13.023-7.8848 4.596-32.816-5.3081-15.705-28.275-37.38-38.713-43.454-25.943-15.097-71.126-53.873-111.79-34.659z" fill="#008080" stroke="#000" stroke-width="9.6043"/>
    <path d="m876.26 547.47c14.02 46.308-1.0307 92.029-33.616 102.12s-70.366-19.269-84.385-65.577 1.0307-92.029 33.616-102.12 70.366 19.269 84.385 65.577z" stroke="#fff" stroke-linejoin="round" stroke-width="5.1215"/>
    <path d="m868.27 547.36c9.8208 38.78-0.722 77.069-23.548 85.52s-49.292-16.136-59.112-54.917 0.72202-77.069 23.548-85.52 49.292 16.136 59.112 54.917z" fill="#ff0"/>
    <path d="m773.03 536.28-140.6-13.753 202.35-55.196 119.77 16.042-123.45 46.845-20.638 8.8784z" stroke="#000" stroke-width=".58877"/>
    <path d="m940.12 484.27s25.948-6.649 27.441 9.7706-1.4927 85.912-1.4927 85.912l-17.912 4.478c3.8885-28.293 12.776-31.59 10.811-89.154 0.50829-5.0271-12.048-7.4412-18.847-11.007z" stroke="#000" stroke-width=".58877"/>
   </g>
   <path d="m350.31 870.62c-18.632 3.7222-35.239 13.503-50.728 23.253-35.451 26.197-36.638 36.449-45.475 53.477 30.393-8.0146 80.541-21.59 116.07-15.963 29.528 3.4536 48.22-11.218 78.313 6.9455-7.022-25.627-2.7893-22.117-24.453-35.124-16.914-10.663-52.878-33.314-73.729-32.589z" fill="url(#h)"/>
   <path d="m201.94 818.91 171.45-46.586 94.122 12.993s-19.392 11.349-52.607 16.162c-21.867 3.1691-32.008 6.0213-55.459 4.1198-20.373-1.6519-37.712 2.5353-58.945 8.5566-17.117 4.8541-98.559 4.7536-98.559 4.7536z" fill="url(#g)" stroke="#000"/>
   <path d="m327.41 834.37 25.303 0.62985 39.888-15.686s8.7332 24.641 8.9636 33.165c0.44818 16.583-15.238 27.339-21.961 29.132s-20.616 5.3781-26.891 1.3445-16.968-10.778-19.272-17.479c-4.93-14.342-6.031-31.106-6.031-31.106z" fill="url(#f)"/>
   <path d="m353.89 872.41c-18.632 3.7222-28.516 14.847-44.006 24.598-35.451 26.197-33.501 32.864-48.613 44.066 30.393-8.0146 73.37-12.178 108.9-6.5513 29.528 3.4536 35.222 8.054 95.792 18.598-18.366-54.759-36.851-47.663-58.514-60.67-16.914-10.663-32.71-20.765-53.561-20.04z" fill="url(#e)"/>
  </g>
 </g>
</svg>
